HIERARCHY
ROOT SpineBase
{
  OFFSET 0.000000 0.000000 0.000000
  CHANNELS 6 Xposition Yposition Zposition Zrotation Xrotation Yrotation
  JOINT SpineMid
  {
    OFFSET 0.000000 32.079334 0.000000
    CHANNELS 3 Zrotation Xrotation Yrotation
    JOINT SpineShoulder
    {
      OFFSET 0.053490 23.804499 -0.727959
      CHANNELS 3 Zrotation Xrotation Yrotation
      JOINT Neck
      {
        OFFSET 0.041374 7.869367 -0.564036
        CHANNELS 3 Zrotation Xrotation Yrotation
        JOINT Head
        {
          OFFSET -5.197839 14.247263 0.183704
          CHANNELS 3 Zrotation Xrotation Yrotation
          End Site
          {
            OFFSET 0 0 0
          }
        }
      }
      JOINT ShoulderLeft
      {
        OFFSET -16.762796 -6.484792 7.998000
        CHANNELS 3 Zrotation Xrotation Yrotation
        JOINT ElbowLeft
        {
          OFFSET -0.977430 -29.271925 3.619140
          CHANNELS 3 Zrotation Xrotation Yrotation
          JOINT WristLeft
          {
            OFFSET 0.647605 -25.002231 -4.288932
            CHANNELS 3 Zrotation Xrotation Yrotation
            JOINT HandLeft
            {
              OFFSET 0.255092 -4.139041 -1.268725
              CHANNELS 3 Zrotation Xrotation Yrotation
              JOINT HandTipLeft
              {
                OFFSET 0.280984 -5.295668 -0.969447
                CHANNELS 3 Zrotation Xrotation Yrotation
                End Site
                {
                  OFFSET 0 0 0
                }
              }
              JOINT ThumbLeft
              {
                OFFSET -1.604395 -1.402780 -1.254676
                CHANNELS 3 Zrotation Xrotation Yrotation
                End Site
                {
                  OFFSET 0 0 0
                }
              }
            }
          }
        }
      }
      JOINT ShoulderRight
      {
        OFFSET 14.377961 -3.529260 -9.411059
        CHANNELS 3 Zrotation Xrotation Yrotation
        JOINT ElbowRight
        {
          OFFSET 7.474373 -26.858329 -1.504558
          CHANNELS 3 Zrotation Xrotation Yrotation
          JOINT WristRight
          {
            OFFSET -0.889331 -23.003878 -5.132682
            CHANNELS 3 Zrotation Xrotation Yrotation
            JOINT HandRight
            {
              OFFSET -2.051400 -6.789420 -0.404738
              CHANNELS 3 Zrotation Xrotation Yrotation
              JOINT HandTipRight
              {
                OFFSET -0.009027 -7.015219 -0.378512
                CHANNELS 3 Zrotation Xrotation Yrotation
                End Site
                {
                  OFFSET 0 0 0
                }
              }
              JOINT ThumbRight
              {
                OFFSET 3.328914 -1.009477 -1.821644
                CHANNELS 3 Zrotation Xrotation Yrotation
                End Site
                {
                  OFFSET 0 0 0
                }
              }
            }
          }
        }
      }
    }
  }
  JOINT HipLeft
  {
    OFFSET -6.628283 0.190802 -0.482311
    CHANNELS 3 Zrotation Xrotation Yrotation
    JOINT KneeLeft
    {
      OFFSET 4.666594 -34.699253 3.198545
      CHANNELS 3 Zrotation Xrotation Yrotation
      JOINT AnkleLeft
      {
        OFFSET 8.140643 -36.437804 6.352798
        CHANNELS 3 Zrotation Xrotation Yrotation
        JOINT FootLeft
        {
          OFFSET 0.887169 -8.429865 -6.578386
          CHANNELS 3 Zrotation Xrotation Yrotation
          End Site
          {
            OFFSET 0 0 0
          }
        }
      }
    }
  }
  JOINT HipRight
  {
    OFFSET 7.160187 1.602727 -6.737245
    CHANNELS 3 Zrotation Xrotation Yrotation
    JOINT KneeRight
    {
      OFFSET 8.412264 -31.340723 -0.584331
      CHANNELS 3 Zrotation Xrotation Yrotation
      JOINT AnkleRight
      {
        OFFSET 4.028840 -40.690155 9.106850
        CHANNELS 3 Zrotation Xrotation Yrotation
        JOINT FootRight
        {
          OFFSET -3.213920 -9.356173 -1.370656
          CHANNELS 3 Zrotation Xrotation Yrotation
          End Site
          {
            OFFSET 0 0 0
          }
        }
      }
    }
  }
}
MOTION
Frames: 9
Frame Time: 0.033333
-24.479779 80.523193 340.242115 -0.000000 0.000000 24.400710 -0.000000 0.000000 -24.400710 -0.000000 0.000000 0.000000 -0.000000 0.000000 0.000000 0.000000 0.000000 0.000000 -0.000000 0.000000 0.000000 -0.000000 0.000000 0.000000 -0.000000 0.000000 0.000000 -0.000000 0.000000 0.000000 0.000000 0.000000 0.000000 0.000000 0.000000 0.000000 -0.000000 0.000000 0.000000 -0.000000 0.000000 0.000000 -0.000000 0.000000 0.000000 -0.000000 0.000000 0.000000 0.000000 0.000000 0.000000 0.000000 0.000000 0.000000 -0.000000 0.000000 -24.400710 -0.000000 0.000000 0.000000 -0.000000 0.000000 0.000000 0.000000 0.000000 0.000000 -0.000000 0.000000 -24.400710 -0.000000 0.000000 0.000000 -0.000000 0.000000 0.000000 0.000000 0.000000 0.000000
-24.459192 80.524245 340.264113 -0.041636 0.037316 24.374352 0.022524 -0.051173 -24.374329 -0.000000 0.000000 0.000000 -0.000000 0.000000 0.000000 0.000000 0.000000 0.000000 -0.000000 0.000000 0.000000 -0.000000 0.000000 0.000000 -0.811801 0.869521 0.308010 1.128839 -1.622705 -0.388006 0.000000 0.000000 0.000000 0.000000 0.000000 0.000000 -0.000000 0.000000 0.000000 -0.000000 0.000000 0.000000 -0.000000 0.000000 0.000000 0.110058 1.795092 -0.009964 0.000000 0.000000 0.000000 0.000000 0.000000 0.000000 0.022524 -0.051173 -24.374329 -0.000000 0.000000 0.000000 1.361784 1.049747 -0.956679 0.000000 0.000000 0.000000 0.022524 -0.051173 -24.374329 -0.000000 0.000000 0.000000 -3.948480 15.278209 -4.042031 0.000000 0.000000 0.000000
-24.430404 80.527410 340.275736 -0.068302 0.080408 24.336491 0.029097 -0.101410 -24.336417 -0.000000 0.000000 0.000000 -0.000000 0.000000 0.000000 0.000000 0.000000 0.000000 -0.000000 0.000000 0.000000 -0.000000 0.000000 0.000000 -1.379770 1.572057 0.536917 2.123660 -2.633157 -0.667087 0.000000 0.000000 0.000000 0.000000 0.000000 0.000000 -0.000000 0.000000 0.000000 -0.000000 0.000000 0.000000 -0.000000 0.000000 0.000000 0.193117 3.228785 -0.019988 0.000000 0.000000 0.000000 0.000000 0.000000 0.000000 0.029097 -0.101410 -24.336417 -0.000000 0.000000 0.000000 2.452009 1.882565 -1.729703 0.000000 0.000000 0.000000 -0.509800 -0.894010 -24.591622 0.160220 0.944950 0.249202 -6.663111 28.599971 -6.948537 0.000000 0.000000 0.000000
-24.393415 80.532688 340.276985 -0.080008 0.129284 24.287155 0.019752 -0.150750 -24.287039 -0.000000 0.000000 0.000000 -0.000000 0.000000 0.000000 0.000000 0.000000 0.000000 -0.000000 0.000000 0.000000 -0.000000 0.000000 0.000000 -1.718946 2.126560 0.686644 3.005609 -3.068401 -0.853330 0.000000 0.000000 0.000000 0.000000 0.000000 0.000000 -0.000000 0.000000 0.000000 -0.000000 0.000000 0.000000 -0.000000 0.000000 0.000000 0.247514 4.277368 -0.028048 0.000000 0.000000 0.000000 0.000000 0.000000 0.000000 0.019752 -0.150750 -24.287039 -0.000000 0.000000 0.000000 3.269083 2.514380 -2.312020 0.000000 0.000000 0.000000 -0.731231 -1.185593 -24.627342 0.251542 1.253603 0.328794 -8.378303 38.819651 -8.973790 0.000000 0.000000 0.000000
-24.348225 80.540078 340.267861 -0.076760 0.183954 24.226378 -0.005485 -0.199251 -24.226264 -0.000000 0.000000 0.000000 -0.000000 0.000000 0.000000 0.000000 0.000000 0.000000 -0.000000 0.000000 0.000000 0.143586 0.904483 -0.002333 -1.980382 1.642228 0.727835 3.783739 -2.958386 -0.961896 0.000000 0.000000 0.000000 0.000000 0.000000 0.000000 -0.000000 0.000000 0.000000 -0.000000 0.000000 0.000000 -0.000000 0.000000 0.000000 0.272295 4.927491 -0.032677 0.000000 0.000000 0.000000 0.000000 0.000000 0.000000 -0.005485 -0.199251 -24.226264 -0.000000 0.000000 0.000000 3.813089 2.958183 -2.699446 0.000000 0.000000 0.000000 -0.933889 -1.380635 -24.624185 -0.165821 2.163480 0.352107 -8.801347 45.471060 -10.513896 0.000000 0.000000 0.000000
-24.294833 80.549581 340.248362 -0.058552 0.244433 24.154197 -0.046595 -0.246991 -24.154172 -0.000000 0.000000 0.000000 -0.000000 0.000000 0.000000 0.000000 0.000000 0.000000 -0.000000 0.000000 0.000000 0.153490 1.071913 -0.000000 -1.891033 1.767908 0.710804 4.456618 -2.326933 -1.007581 0.000000 0.000000 0.000000 0.000000 0.000000 0.000000 -0.000000 0.000000 0.000000 -0.000000 0.000000 0.000000 0.072335 -0.778537 0.231553 0.219326 5.953015 -0.268552 0.000000 0.000000 0.000000 0.000000 0.000000 0.000000 -0.046595 -0.246991 -24.154172 -0.000000 0.000000 0.000000 4.084697 3.223214 -2.889662 0.000000 0.000000 0.000000 -1.119833 -1.481839 -24.582427 -0.107494 2.298922 0.371199 -9.245736 50.590574 -11.607842 0.000000 0.000000 0.000000
-24.213661 80.564856 340.198918 0.001860 0.329896 24.059783 -0.136195 -0.300476 -24.060145 -0.000000 0.000000 0.000000 -0.397237 0.670543 0.252384 0.000000 0.000000 0.000000 -0.000000 0.000000 0.000000 0.090995 1.263881 0.016094 -0.909854 2.742308 0.485677 4.356154 -1.002379 -0.794778 0.000000 0.000000 0.000000 0.000000 0.000000 0.000000 -0.000000 0.000000 0.000000 -0.129034 0.991870 -0.008423 1.144485 -1.878097 0.244157 -0.522703 5.117394 -0.256732 0.000000 0.000000 0.000000 0.000000 0.000000 0.000000 -0.136195 -0.300476 -24.060145 -0.000000 0.000000 0.000000 3.372806 3.187679 -2.332885 0.000000 0.000000 0.000000 -1.286662 -1.377750 -24.456190 0.601518 1.456717 0.371548 -9.529053 56.442902 -13.128261 0.000000 0.000000 0.000000
-24.135543 80.581081 340.140324 0.061078 0.410012 23.943720 -0.222224 -0.349939 -23.944618 -0.000000 0.000000 0.000000 -0.502881 0.720556 0.272945 0.000000 0.000000 0.000000 -0.000000 0.000000 0.000000 0.096782 1.347449 0.017128 -0.056734 3.386643 0.256375 5.442542 -0.240944 -0.799028 0.000000 0.000000 0.000000 0.000000 0.000000 0.000000 0.457182 -0.726562 -0.224739 -0.648209 1.997643 0.226612 1.814742 -1.819753 0.122869 -1.041207 3.791188 -0.118550 0.000000 0.000000 0.000000 0.000000 0.000000 0.000000 -0.222224 -0.349939 -23.944618 -0.000000 0.000000 0.000000 4.748799 -0.585942 -3.742567 0.000000 0.000000 0.000000 -1.301811 -0.990968 -24.219076 0.721735 1.027331 0.255354 -9.392413 59.215063 -14.001320 0.000000 0.000000 0.000000
-24.064782 80.595330 340.101112 0.111375 0.475834 23.844915 -0.294236 -0.390190 -23.846380 -0.000000 0.000000 0.000000 -0.586184 0.749591 0.285379 0.000000 0.000000 0.000000 -0.000000 0.000000 0.000000 0.054534 1.368436 0.025388 0.270007 1.897094 0.072987 6.745816 3.139451 -1.045912 0.000000 0.000000 0.000000 0.000000 0.000000 0.000000 0.538723 -0.819635 -0.254193 -0.753982 2.329319 0.254897 2.271772 -2.529606 0.274185 -1.922693 3.466097 -0.182975 0.000000 0.000000 0.000000 0.000000 0.000000 0.000000 -0.294236 -0.390190 -23.846380 -0.000000 0.000000 0.000000 2.503269 3.817040 -1.590235 0.000000 0.000000 0.000000 -1.533619 -0.995148 -24.128432 0.883975 1.058529 0.258903 -9.485325 59.743478 -14.089141 0.000000 0.000000 0.000000
